<?xml version="1.0" encoding="UTF-8" standalone="no"?>
<svg
   viewBox="0 0 24 24"
   version="1.1"
   id="svg10"
   sodipodi:docname="car-outline.svg"
   inkscape:version="1.1.2 (0a00cf5339, 2022-02-04, custom)"
   xmlns:inkscape="http://www.inkscape.org/namespaces/inkscape"
   xmlns:sodipodi="http://sodipodi.sourceforge.net/DTD/sodipodi-0.dtd"
   xmlns="http://www.w3.org/2000/svg"
   xmlns:svg="http://www.w3.org/2000/svg">
  <defs
     id="defs14" />
  <sodipodi:namedview
     id="namedview12"
     pagecolor="#ffffff"
     bordercolor="#666666"
     borderopacity="1.0"
     inkscape:pageshadow="2"
     inkscape:pageopacity="0.0"
     inkscape:pagecheckerboard="0"
     showgrid="false"
     inkscape:zoom="26.25"
     inkscape:cx="11.980952"
     inkscape:cy="11.961905"
     inkscape:window-width="2560"
     inkscape:window-height="1367"
     inkscape:window-x="0"
     inkscape:window-y="0"
     inkscape:window-maximized="1"
     inkscape:current-layer="svg10" />
  <g
     data-name="Layer 2"
     id="g8">
    <g
       data-name="car"
       id="g6">
      <rect
         width="24"
         height="24"
         opacity="0"
         id="rect2" />
      <path
         d="M21.6 11.22L17 7.52V5a1.91 1.91 0 0 0-1.81-2H3.79A1.91 1.91 0 0 0 2 5v10a2 2 0 0 0 1.2 1.88 3 3 0 1 0 5.6.12h6.36a3 3 0 1 0 5.64 0h.2a1 1 0 0 0 1-1v-4a1 1 0 0 0-.4-.78zM20 12.48V15h-3v-4.92zM7 18a1 1 0 1 1-1-1 1 1 0 0 1 1 1zm5-3H4V5h11v10zm7 3a1 1 0 1 1-1-1 1 1 0 0 1 1 1z"
         id="path4" />
    </g>
  </g>
  <path
     style="fill:#ffffff;stroke-width:0.0380952"
     d="M 5.3850029,20.932904 C 4.8071619,20.817805 4.3564833,20.566007 3.8857143,20.095238 3.5050715,19.714595 3.3328932,19.451565 3.1781795,19.014362 2.9353742,18.328222 2.9431097,17.705622 3.2042829,16.913413 3.2174664,16.873423 3.1687521,16.828842 3.0475055,16.769936 2.6543018,16.578903 2.2557515,16.085663 2.1034461,15.601582 L 2.0190476,15.333333 V 9.9809524 4.6285714 L 2.1031786,4.3619048 C 2.3179672,3.6810978 2.9029618,3.1642613 3.5878184,3.0502412 3.7757681,3.01895 5.4543113,3.0099723 9.6571429,3.0177796 l 5.8095241,0.010792 0.225496,0.085881 c 0.608478,0.2317411 1.035911,0.6886945 1.217874,1.3019856 0.05176,0.1744633 0.06139,0.4345263 0.06139,1.658211 V 7.525946 l 2.389381,1.9227413 c 2.297469,1.8487787 2.39382,1.9314297 2.504762,2.1486187 l 0.11538,0.225878 v 2.174122 c 0,2.483509 0.01105,2.390553 -0.320911,2.701058 -0.197743,0.184967 -0.468329,0.292112 -0.737698,0.292112 -0.126829,0 -0.145633,0.01013 -0.123804,0.06667 0.127678,0.330717 0.190914,0.938198 0.13756,1.321492 -0.14292,1.026751 -0.792301,1.916279 -1.70659,2.337703 -0.839225,0.386823 -1.737236,0.370501 -2.58189,-0.04693 -1.235635,-0.610654 -1.894976,-2.025241 -1.558819,-3.344374 0.03053,-0.119802 0.06559,-0.244088 0.07791,-0.27619 0.02001,-0.05214 -0.319791,-0.05837 -3.185754,-0.05837 -3.0397901,0 -3.2068004,0.0035 -3.1824133,0.06667 0.154048,0.399021 0.1921562,1.174705 0.080009,1.628571 -0.03624,0.146667 -0.1486541,0.43866 -0.2498087,0.648873 -0.5750637,1.195064 -1.926101,1.860774 -3.2437358,1.598317 z M 6.3133234,18.969691 C 6.5302644,18.909441 6.7681478,18.706634 6.8937638,18.474836 6.9894171,18.298328 7.0061886,18.226108 7.0040343,18 7.0001421,17.591514 6.8451661,17.315704 6.5087543,17.118554 6.3089333,17.001451 5.9491337,16.959662 5.7063638,17.02536 5.4729453,17.088527 5.2358524,17.285985 5.1062363,17.525164 5.0117877,17.699449 4.9934251,17.776739 4.9934251,18 c 0,0.223628 0.018207,0.3 0.1128112,0.473203 0.239786,0.439002 0.7130986,0.633681 1.2070871,0.496488 z m 11.9999996,0 c 0.216941,-0.06025 0.454825,-0.263057 0.580441,-0.494855 0.09565,-0.176508 0.112425,-0.248728 0.11027,-0.474836 -0.0039,-0.408486 -0.158868,-0.684296 -0.49528,-0.881446 -0.199821,-0.117103 -0.55962,-0.158892 -0.80239,-0.09319 -0.233419,0.06317 -0.470511,0.260625 -0.600128,0.499804 -0.09445,0.174285 -0.112811,0.251575 -0.112811,0.474836 0,0.223628 0.01821,0.3 0.112811,0.473203 0.239786,0.439002 0.713099,0.633681 1.207087,0.496488 z M 15.028571,10 V 4.9904762 H 9.5047619 3.9809524 V 10 15.009524 h 5.5238095 5.5238091 z m 4.990477,3.737224 v -1.272299 l -1.504395,-1.203891 c -0.827416,-0.66214 -1.513131,-1.203891 -1.523809,-1.203891 -0.01068,0 -0.01941,1.114286 -0.01941,2.47619 v 2.476191 h 1.523809 1.52381 z"
     id="path90" />
</svg>
