<?xml version="1.0" encoding="UTF-8" standalone="no"?>
<svg
   viewBox="0 0 24 24"
   version="1.1"
   id="svg6"
   sodipodi:docname="download-outline.svg"
   inkscape:version="1.3.2 (091e20ef0f, 2023-11-25, custom)"
   xmlns:inkscape="http://www.inkscape.org/namespaces/inkscape"
   xmlns:sodipodi="http://sodipodi.sourceforge.net/DTD/sodipodi-0.dtd"
   xmlns="http://www.w3.org/2000/svg"
   xmlns:svg="http://www.w3.org/2000/svg">
  <defs
     id="defs6" />
  <sodipodi:namedview
     id="namedview6"
     pagecolor="#ffffff"
     bordercolor="#000000"
     borderopacity="0.25"
     inkscape:showpageshadow="2"
     inkscape:pageopacity="0.0"
     inkscape:pagecheckerboard="0"
     inkscape:deskcolor="#d1d1d1"
     inkscape:zoom="48.5"
     inkscape:cx="11.989691"
     inkscape:cy="12"
     inkscape:window-width="2560"
     inkscape:window-height="1368"
     inkscape:window-x="0"
     inkscape:window-y="0"
     inkscape:window-maximized="1"
     inkscape:current-layer="svg6" />
  <g
     data-name="Layer 2"
     id="g6"
     style="fill:#ffffff">
    <g
       data-name="download"
       id="g5"
       style="fill:#ffffff">
      <rect
         width="24"
         height="24"
         opacity="0"
         id="rect1"
         style="fill:#ffffff" />
      <rect
         x="4"
         y="18"
         width="16"
         height="2"
         rx="1"
         ry="1"
         id="rect2"
         style="fill:#ffffff" />
      <rect
         x="3"
         y="17"
         width="4"
         height="2"
         rx="1"
         ry="1"
         transform="rotate(-90 5 18)"
         id="rect3"
         style="fill:#ffffff" />
      <rect
         x="17"
         y="17"
         width="4"
         height="2"
         rx="1"
         ry="1"
         transform="rotate(-90 19 18)"
         id="rect4"
         style="fill:#ffffff" />
      <path
         d="M12 15a1 1 0 0 1-.58-.18l-4-2.82a1 1 0 0 1-.24-1.39 1 1 0 0 1 1.4-.24L12 12.76l3.4-2.56a1 1 0 0 1 1.2 1.6l-4 3a1 1 0 0 1-.6.2z"
         id="path4"
         style="fill:#ffffff" />
      <path
         d="M12 13a1 1 0 0 1-1-1V4a1 1 0 0 1 2 0v8a1 1 0 0 1-1 1z"
         id="path5"
         style="fill:#ffffff" />
    </g>
  </g>
</svg>
