<?xml version="1.0" encoding="UTF-8" standalone="no"?>
<svg
   viewBox="0 0 24 24"
   version="1.1"
   id="svg10"
   sodipodi:docname="flag-outline.svg"
   inkscape:version="1.1.2 (0a00cf5339, 2022-02-04, custom)"
   xmlns:inkscape="http://www.inkscape.org/namespaces/inkscape"
   xmlns:sodipodi="http://sodipodi.sourceforge.net/DTD/sodipodi-0.dtd"
   xmlns="http://www.w3.org/2000/svg"
   xmlns:svg="http://www.w3.org/2000/svg">
  <defs
     id="defs14" />
  <sodipodi:namedview
     id="namedview12"
     pagecolor="#ffffff"
     bordercolor="#666666"
     borderopacity="1.0"
     inkscape:pageshadow="2"
     inkscape:pageopacity="0.0"
     inkscape:pagecheckerboard="0"
     showgrid="false"
     inkscape:zoom="26.25"
     inkscape:cx="11.980952"
     inkscape:cy="11.961905"
     inkscape:window-width="2560"
     inkscape:window-height="1367"
     inkscape:window-x="0"
     inkscape:window-y="0"
     inkscape:window-maximized="1"
     inkscape:current-layer="svg10" />
  <g
     data-name="Layer 2"
     id="g8">
    <g
       data-name="flag"
       id="g6">
      <polyline
         points="24 24 0 24 0 0"
         opacity="0"
         id="polyline2" />
      <path
         d="M19.27 4.68a1.79 1.79 0 0 0-1.6-.25 7.53 7.53 0 0 1-2.17.28 8.54 8.54 0 0 1-3.13-.78A10.15 10.15 0 0 0 8.5 3c-2.89 0-4 1-4.2 1.14a1 1 0 0 0-.3.72V20a1 1 0 0 0 2 0v-4.3a6.28 6.28 0 0 1 2.5-.41 8.54 8.54 0 0 1 3.13.78 10.15 10.15 0 0 0 3.87.93 7.66 7.66 0 0 0 3.5-.7 1.74 1.74 0 0 0 1-1.55V6.11a1.77 1.77 0 0 0-.73-1.43zM18 14.59a6.32 6.32 0 0 1-2.5.41 8.36 8.36 0 0 1-3.13-.79 10.34 10.34 0 0 0-3.87-.92 9.51 9.51 0 0 0-2.5.29V5.42A6.13 6.13 0 0 1 8.5 5a8.36 8.36 0 0 1 3.13.79 10.34 10.34 0 0 0 3.87.92 9.41 9.41 0 0 0 2.5-.3z"
         id="path4" />
    </g>
  </g>
  <path
     style="fill:#ffffff;stroke-width:0.0380952"
     d="M 4.7717058,20.949207 C 4.580914,20.904225 4.3517389,20.755343 4.2323548,20.598823 4.0045402,20.300142 4.0188934,20.854579 4.0207197,12.423782 4.0225176,4.1242288 4.0116001,4.5823727 4.2146405,4.2860547 4.3065915,4.1518608 4.7280174,3.8546907 5.0686741,3.6838295 6.1717272,3.1305774 8.0838389,2.8895474 9.5619048,3.1174382 10.554057,3.27041 11.252573,3.478208 12.359948,3.9498139 c 0.983929,0.4190331 1.736723,0.6277333 2.668623,0.7398335 0.724197,0.087115 1.838778,-0.012697 2.628572,-0.2353922 0.954691,-0.2691904 1.852934,0.1622797 2.218396,1.065604 l 0.08637,0.2134741 0.01028,4.5712827 c 0.0071,3.174809 -0.0023,4.632069 -0.03103,4.770266 -0.103821,0.5001 -0.476557,0.966658 -0.960985,1.202875 -0.978483,0.477129 -2.350692,0.749828 -3.5135,0.698236 -1.330302,-0.05902 -2.398738,-0.317059 -3.81881,-0.922275 -1.373118,-0.585204 -2.438998,-0.809495 -3.645689,-0.767152 -0.6406395,0.02248 -1.0364066,0.08713 -1.6097715,0.262973 l -0.3885559,0.119163 -0.011444,2.270411 c -0.011152,2.212375 -0.013484,2.274793 -0.091259,2.441839 -0.1118944,0.240328 -0.3819708,0.476696 -0.6282431,0.549831 -0.2212763,0.06571 -0.289915,0.06823 -0.5011881,0.01842 z M 17.00366,14.900734 c 0.195823,-0.04248 0.500108,-0.123114 0.676191,-0.179182 L 18,14.61961 V 10.509805 C 18,8.2494122 17.994912,6.4 17.988693,6.4 17.982493,6.4 17.823902,6.433296 17.636312,6.473991 16.607689,6.6971366 15.441605,6.7421021 14.47619,6.5958488 13.489326,6.4463459 12.614456,6.1943769 11.714286,5.8003994 10.833301,5.4148191 10.265882,5.2359936 9.4285714,5.0800439 9.1555109,5.0291862 8.8655977,5.0123761 8.247619,5.0115685 7.3460104,5.0103904 7.0987906,5.0438951 6.3904762,5.2632602 L 6,5.3841907 v 4.1086306 4.1086297 l 0.085714,-0.01981 c 0.8569828,-0.198018 1.3785462,-0.259557 2.2,-0.259577 1.3362636,-3.2e-5 2.656879,0.289688 4,0.877532 1.041039,0.455631 1.63854,0.625845 2.761905,0.786803 0.06286,0.009 0.448571,0.01079 0.857143,0.004 0.567097,-0.0095 0.827096,-0.03068 1.098898,-0.08964 z"
     id="path53" />
</svg>
