<?xml version="1.0" encoding="UTF-8" standalone="no"?>
<svg
   viewBox="0 0 24 24"
   version="1.1"
   id="svg10"
   sodipodi:docname="layers-outline.svg"
   inkscape:version="1.1.2 (0a00cf5339, 2022-02-04, custom)"
   xmlns:inkscape="http://www.inkscape.org/namespaces/inkscape"
   xmlns:sodipodi="http://sodipodi.sourceforge.net/DTD/sodipodi-0.dtd"
   xmlns="http://www.w3.org/2000/svg"
   xmlns:svg="http://www.w3.org/2000/svg">
  <defs
     id="defs14" />
  <sodipodi:namedview
     id="namedview12"
     pagecolor="#ffffff"
     bordercolor="#666666"
     borderopacity="1.0"
     inkscape:pageshadow="2"
     inkscape:pageopacity="0.0"
     inkscape:pagecheckerboard="0"
     showgrid="false"
     inkscape:zoom="26.25"
     inkscape:cx="11.980952"
     inkscape:cy="11.961905"
     inkscape:window-width="2560"
     inkscape:window-height="1367"
     inkscape:window-x="0"
     inkscape:window-y="0"
     inkscape:window-maximized="1"
     inkscape:current-layer="svg10" />
  <g
     data-name="Layer 2"
     id="g8">
    <g
       data-name="layers"
       id="g6">
      <rect
         width="24"
         height="24"
         transform="rotate(180 12 12)"
         opacity="0"
         id="rect2" />
      <path
         d="M21 11.35a1 1 0 0 0-.61-.86l-2.15-.92 2.26-1.3a1 1 0 0 0 .5-.92 1 1 0 0 0-.61-.86l-8-3.41a1 1 0 0 0-.78 0l-8 3.41a1 1 0 0 0-.61.86 1 1 0 0 0 .5.92l2.26 1.3-2.15.92a1 1 0 0 0-.61.86 1 1 0 0 0 .5.92l2.26 1.3-2.15.92a1 1 0 0 0-.61.86 1 1 0 0 0 .5.92l8 4.6a1 1 0 0 0 1 0l8-4.6a1 1 0 0 0 .5-.92 1 1 0 0 0-.61-.86l-2.15-.92 2.26-1.3a1 1 0 0 0 .5-.92zm-9-6.26l5.76 2.45L12 10.85 6.24 7.54zm-.5 7.78a1 1 0 0 0 1 0l3.57-2 1.69.72L12 14.85l-5.76-3.31 1.69-.72zm6.26 2.67L12 18.85l-5.76-3.31 1.69-.72 3.57 2.05a1 1 0 0 0 1 0l3.57-2.05z"
         id="path4" />
    </g>
  </g>
  <path
     style="fill:#ffffff;stroke-width:0.0380952"
     d="M 11.752381,20.94621 C 11.545241,20.888114 3.4592412,16.226999 3.3138701,16.081892 3.1097827,15.878175 3.0474636,15.715655 3.0487442,15.390476 3.0500229,15.065803 3.1038006,14.934229 3.3259496,14.71226 3.4400631,14.598238 3.6862524,14.478242 4.6191618,14.081924 5.2529085,13.812697 5.7711128,13.581268 5.770727,13.567638 5.7703411,13.554009 5.2460819,13.242857 4.6057067,12.87619 3.9653314,12.509524 3.3839271,12.15209 3.313697,12.081892 3.1097279,11.878017 3.0474641,11.715535 3.0487442,11.390476 3.0500229,11.065803 3.1038006,10.934229 3.3259496,10.71226 3.4400631,10.598238 3.6862524,10.478242 4.6191618,10.081924 5.2529085,9.8126968 5.7711128,9.5812682 5.770727,9.5676385 5.7703411,9.5540088 5.2460819,9.2428571 4.6057067,8.8761905 3.9653314,8.5095238 3.3839271,8.1520895 3.313697,8.0818918 3.1097279,7.8780171 3.0474641,7.7155349 3.0487442,7.3904762 3.050025,7.0652549 3.1040713,6.9334488 3.3268434,6.7122598 3.4489794,6.5909916 4.0453535,6.3255986 7.6200556,4.8017333 11.552342,3.1254329 11.783491,3.032038 12,3.032038 c 0.216556,0 0.44663,0.09303 4.376635,1.7696825 3.535026,1.508143 4.169519,1.7905029 4.293231,1.9105616 0.225131,0.2184821 0.280101,0.3509697 0.28139,0.6781941 0.0013,0.3250324 -0.06097,0.4875067 -0.264915,0.6914156 -0.07021,0.070198 -0.651332,0.427632 -1.291383,0.7942987 -0.640052,0.3666666 -1.164328,0.6771691 -1.165058,0.6900061 -7.32e-4,0.012837 0.51412,0.2431139 1.144113,0.5117274 0.919251,0.391947 1.174625,0.516711 1.29323,0.631813 0.227843,0.221114 0.282721,0.352647 0.284013,0.680739 0.0013,0.325033 -0.06097,0.487507 -0.264915,0.691416 -0.07021,0.0702 -0.651332,0.427632 -1.291383,0.794298 -0.640052,0.366667 -1.164328,0.67717 -1.165058,0.690007 -7.32e-4,0.01284 0.51412,0.243113 1.144113,0.511727 0.919251,0.391947 1.174625,0.516711 1.29323,0.631813 0.227843,0.221114 0.282721,0.352647 0.284013,0.680739 0.0013,0.325196 -0.06096,0.487479 -0.265339,0.691861 -0.156457,0.156457 -8.24073,4.808528 -8.457346,4.866754 -0.180443,0.0485 -0.295457,0.04781 -0.47619,-0.0029 z m 3.175439,-3.750762 c 1.563833,-0.898449 2.843394,-1.643208 2.84347,-1.65502 1.9e-4,-0.02669 -1.640278,-0.722836 -1.701353,-0.721993 -0.02439,3.43e-4 -0.85582,0.466491 -1.847619,1.035897 -0.991799,0.569407 -1.888985,1.060572 -1.993747,1.091478 -0.350922,0.103529 -0.420753,0.0725 -2.4257958,-1.077888 -1.0054624,-0.576881 -1.8481264,-1.04915 -1.872587,-1.049487 -0.061333,-8.45e-4 -1.7017173,0.695338 -1.7011999,0.721993 9.071e-4,0.04673 5.7369007,3.316588 5.7942087,3.303047 0.03371,-0.008 1.340791,-0.749578 2.904623,-1.648027 z m 0.003,-3.977013 c 1.564765,-0.885619 2.831177,-1.623871 2.81425,-1.64056 -0.03422,-0.03374 -1.628029,-0.720732 -1.67209,-0.720732 -0.0153,0 -0.85432,0.463293 -1.864479,1.029541 -2.011736,1.127684 -2.089876,1.161639 -2.437063,1.059021 -0.104762,-0.03096 -1.001816,-0.522129 -1.9934526,-1.091478 -0.991637,-0.569349 -1.8230655,-1.035455 -1.8476191,-1.035792 -0.06145,-8.41e-4 -1.7018872,0.695293 -1.701369,0.721993 9.139e-4,0.04708 5.7371277,3.316534 5.7948567,3.302877 0.03407,-0.0081 1.342203,-0.739251 2.906967,-1.62487 z M 14.92632,9.1958545 C 16.491076,8.2971821 17.771336,7.5525539 17.771369,7.541125 17.771401,7.529696 16.473011,6.9679821 14.886059,6.2928711 L 12.000691,5.0653969 9.1146312,6.293122 C 7.5272983,6.9683707 6.228759,7.530085 6.2289883,7.541376 c 9.197e-4,0.045273 5.7371187,3.315592 5.7926547,3.302505 0.03286,-0.0077 1.339973,-0.749354 2.904703,-1.6480265 z"
     id="path53" />
</svg>
