<?xml version="1.0" encoding="UTF-8" standalone="no"?>
<svg
   viewBox="0 0 24 24"
   version="1.1"
   id="svg10"
   sodipodi:docname="paper-plane-outline.svg"
   inkscape:version="1.1.2 (0a00cf5339, 2022-02-04, custom)"
   xmlns:inkscape="http://www.inkscape.org/namespaces/inkscape"
   xmlns:sodipodi="http://sodipodi.sourceforge.net/DTD/sodipodi-0.dtd"
   xmlns="http://www.w3.org/2000/svg"
   xmlns:svg="http://www.w3.org/2000/svg">
  <defs
     id="defs14" />
  <sodipodi:namedview
     id="namedview12"
     pagecolor="#ffffff"
     bordercolor="#666666"
     borderopacity="1.0"
     inkscape:pageshadow="2"
     inkscape:pageopacity="0.0"
     inkscape:pagecheckerboard="0"
     showgrid="false"
     inkscape:zoom="26.25"
     inkscape:cx="11.980952"
     inkscape:cy="11.961905"
     inkscape:window-width="2560"
     inkscape:window-height="1367"
     inkscape:window-x="0"
     inkscape:window-y="0"
     inkscape:window-maximized="1"
     inkscape:current-layer="svg10" />
  <g
     data-name="Layer 2"
     id="g8">
    <g
       data-name="paper-plane"
       id="g6">
      <rect
         width="24"
         height="24"
         opacity="0"
         id="rect2" />
      <path
         d="M21 4a1.31 1.31 0 0 0-.06-.27v-.09a1 1 0 0 0-.2-.3 1 1 0 0 0-.29-.19h-.09a.86.86 0 0 0-.31-.15H20a1 1 0 0 0-.3 0l-18 6a1 1 0 0 0 0 1.9l8.53 2.84 2.84 8.53a1 1 0 0 0 1.9 0l6-18A1 1 0 0 0 21 4zm-4.7 2.29l-5.57 5.57L5.16 10zM14 18.84l-1.86-5.57 5.57-5.57z"
         id="path4" />
    </g>
  </g>
  <path
     style="fill:#ffffff;stroke-width:0.0380952"
     d="m 13.714286,22.886988 c -0.16664,-0.05881 -0.396353,-0.235334 -0.494523,-0.380027 -0.04702,-0.0693 -0.733649,-2.072762 -1.525839,-4.452127 L 10.253578,13.728716 5.9839318,12.306723 C 3.6356265,11.524627 1.6519808,10.853471 1.5758304,10.815265 1.2538886,10.653742 1.0498725,10.332696 1.0484557,9.9853722 1.0471512,9.6655657 1.1173847,9.489699 1.3330778,9.2726709 L 1.5258801,9.0786747 10.629607,6.0440993 c 6.092948,-2.0309827 9.154122,-3.0342988 9.256107,-3.0337388 0.08381,4.601e-4 0.22711,0.034746 0.318446,0.07619 0.09134,0.041445 0.185928,0.075354 0.210205,0.075354 0.09495,0 0.330731,0.1997771 0.424381,0.3595791 0.07017,0.1197415 0.104184,0.2430148 0.118111,0.4281025 l 0.01956,0.2599374 -3.029808,9.0818525 c -2.012835,6.033478 -3.063234,9.130086 -3.129393,9.225554 -0.234292,0.338083 -0.726015,0.503067 -1.102929,0.370058 z m 2.16118,-9.598905 c 1.02094,-3.062983 1.84734,-5.5779756 1.836443,-5.5888727 -0.0109,-0.010897 -1.274718,1.2350926 -2.808491,2.7688657 l -2.788679,2.788678 0.932815,2.800195 c 0.513049,1.540107 0.941555,2.800194 0.952236,2.800194 0.01068,0 0.854735,-2.506077 1.875676,-5.56906 z M 13.542857,9.0857143 c 1.539893,-1.54 2.774091,-2.8 2.742661,-2.8 -0.111677,0 -11.0854209,3.6768514 -11.085467,3.7142857 -3.39e-5,0.02733 5.375065,1.859335 5.523856,1.882707 0.01053,0.0017 1.279057,-1.256993 2.81895,-2.7969927 z"
     id="path435" />
</svg>
