<?xml version="1.0" encoding="UTF-8" standalone="no"?>
<svg
   viewBox="0 0 24 24"
   version="1.1"
   id="svg12"
   sodipodi:docname="person-outline.svg"
   inkscape:version="1.1.2 (0a00cf5339, 2022-02-04, custom)"
   xmlns:inkscape="http://www.inkscape.org/namespaces/inkscape"
   xmlns:sodipodi="http://sodipodi.sourceforge.net/DTD/sodipodi-0.dtd"
   xmlns="http://www.w3.org/2000/svg"
   xmlns:svg="http://www.w3.org/2000/svg">
  <defs
     id="defs16" />
  <sodipodi:namedview
     id="namedview14"
     pagecolor="#ffffff"
     bordercolor="#666666"
     borderopacity="1.0"
     inkscape:pageshadow="2"
     inkscape:pageopacity="0.0"
     inkscape:pagecheckerboard="0"
     showgrid="false"
     inkscape:zoom="26.25"
     inkscape:cx="11.980952"
     inkscape:cy="11.961905"
     inkscape:window-width="2560"
     inkscape:window-height="1367"
     inkscape:window-x="0"
     inkscape:window-y="0"
     inkscape:window-maximized="1"
     inkscape:current-layer="svg12" />
  <g
     data-name="Layer 2"
     id="g10">
    <g
       data-name="person"
       id="g8">
      <rect
         width="24"
         height="24"
         opacity="0"
         id="rect2" />
      <path
         d="M12 11a4 4 0 1 0-4-4 4 4 0 0 0 4 4zm0-6a2 2 0 1 1-2 2 2 2 0 0 1 2-2z"
         id="path4" />
      <path
         d="M12 13a7 7 0 0 0-7 7 1 1 0 0 0 2 0 5 5 0 0 1 10 0 1 1 0 0 0 2 0 7 7 0 0 0-7-7z"
         id="path6" />
    </g>
  </g>
  <path
     style="fill:#ffffff;stroke-width:0.0380952"
     d="M 11.28097,10.912233 C 10.491424,10.755353 9.8336762,10.41291 9.2509746,9.8553577 7.4229196,8.1062008 7.6807564,5.1467635 9.7874871,3.6972946 10.046613,3.5190115 10.621388,3.2554956 10.947326,3.1655457 c 0.92807,-0.2561215 1.874103,-0.1675627 2.76696,0.2590169 1.708634,0.8163332 2.603445,2.7189323 2.137644,4.5451825 -0.387707,1.5200701 -1.634783,2.6750249 -3.18073,2.9457689 -0.390224,0.06834 -1.037463,0.06681 -1.39023,-0.0033 z m 1.388413,-2.0128052 c 0.488081,-0.1697379 0.85941,-0.4891375 1.106265,-0.9515569 0.166022,-0.3110004 0.223374,-0.5576492 0.2239,-0.9629056 5.48e-4,-0.42344 -0.08826,-0.741501 -0.297055,-1.0639036 -0.805787,-1.2442087 -2.599198,-1.2442087 -3.404986,0 C 10.088618,6.2436048 10,6.5612859 10,6.9875745 c 0,0.5844297 0.189198,1.0492057 0.590476,1.4505421 0.534159,0.5342354 1.349173,0.7150876 2.078907,0.4613112 z"
     id="path55" />
  <path
     style="fill:#ffffff;stroke-width:0.0380952"
     d="M 5.8042982,20.96537 C 5.5950774,20.929508 5.3004652,20.712212 5.1738987,20.500408 5.0168757,20.237637 4.9900616,20.01207 5.0456853,19.421841 5.3894038,15.774608 8.3764198,13.028571 12,13.028571 c 3.638421,0 6.612374,2.745109 6.95417,6.419048 0.05368,0.576984 0.02746,0.792521 -0.128069,1.052789 -0.281384,0.470886 -0.849801,0.608156 -1.336709,0.322809 -0.336626,-0.197276 -0.43983,-0.42859 -0.483419,-1.083488 -0.06844,-1.028214 -0.377669,-1.913088 -0.935901,-2.678086 -0.747194,-1.023949 -1.821266,-1.716851 -3.070694,-1.980957 -0.551062,-0.116484 -1.447694,-0.116484 -1.998756,0 -0.958435,0.202595 -1.7629972,0.626531 -2.4626106,1.297586 -0.9528583,0.913962 -1.4536527,2.004257 -1.5439844,3.361457 -0.035295,0.53029 -0.06741,0.644103 -0.2510862,0.889818 -0.1724299,0.230672 -0.6193188,0.390557 -0.9386426,0.335823 z"
     id="path94" />
</svg>
