<?xml version="1.0" encoding="UTF-8" standalone="no"?>
<svg
   viewBox="0 0 24 24"
   version="1.1"
   id="svg12"
   sodipodi:docname="settings-2-outline.svg"
   inkscape:version="1.1.2 (0a00cf5339, 2022-02-04, custom)"
   xmlns:inkscape="http://www.inkscape.org/namespaces/inkscape"
   xmlns:sodipodi="http://sodipodi.sourceforge.net/DTD/sodipodi-0.dtd"
   xmlns="http://www.w3.org/2000/svg"
   xmlns:svg="http://www.w3.org/2000/svg">
  <defs
     id="defs16" />
  <sodipodi:namedview
     id="namedview14"
     pagecolor="#ffffff"
     bordercolor="#666666"
     borderopacity="1.0"
     inkscape:pageshadow="2"
     inkscape:pageopacity="0.0"
     inkscape:pagecheckerboard="0"
     showgrid="false"
     inkscape:zoom="26.25"
     inkscape:cx="11.980952"
     inkscape:cy="11.961905"
     inkscape:window-width="2560"
     inkscape:window-height="1367"
     inkscape:window-x="0"
     inkscape:window-y="0"
     inkscape:window-maximized="1"
     inkscape:current-layer="svg12" />
  <g
     data-name="Layer 2"
     id="g10">
    <g
       data-name="settings-2"
       id="g8">
      <rect
         width="24"
         height="24"
         transform="rotate(180 12 12)"
         opacity="0"
         id="rect2" />
      <path
         d="M12.94 22h-1.89a1.68 1.68 0 0 1-1.68-1.68v-1.09a.34.34 0 0 0-.22-.29.38.38 0 0 0-.41 0l-.74.8a1.67 1.67 0 0 1-2.37 0L4.26 18.4a1.66 1.66 0 0 1-.5-1.19 1.72 1.72 0 0 1 .5-1.21l.74-.74a.34.34 0 0 0 0-.37c-.06-.15-.16-.26-.3-.26H3.68A1.69 1.69 0 0 1 2 12.94v-1.89a1.68 1.68 0 0 1 1.68-1.68h1.09a.34.34 0 0 0 .29-.22.38.38 0 0 0 0-.41L4.26 8a1.67 1.67 0 0 1 0-2.37L5.6 4.26a1.65 1.65 0 0 1 1.18-.5 1.72 1.72 0 0 1 1.22.5l.74.74a.34.34 0 0 0 .37 0c.15-.06.26-.16.26-.3V3.68A1.69 1.69 0 0 1 11.06 2H13a1.68 1.68 0 0 1 1.68 1.68v1.09a.34.34 0 0 0 .22.29.38.38 0 0 0 .41 0l.69-.8a1.67 1.67 0 0 1 2.37 0l1.37 1.34a1.67 1.67 0 0 1 .5 1.19 1.63 1.63 0 0 1-.5 1.21l-.74.74a.34.34 0 0 0 0 .37c.06.15.16.26.3.26h1.09A1.69 1.69 0 0 1 22 11.06V13a1.68 1.68 0 0 1-1.68 1.68h-1.09a.34.34 0 0 0-.29.22.34.34 0 0 0 0 .37l.77.77a1.67 1.67 0 0 1 0 2.37l-1.31 1.33a1.65 1.65 0 0 1-1.18.5 1.72 1.72 0 0 1-1.19-.5l-.77-.74a.34.34 0 0 0-.37 0c-.15.06-.26.16-.26.3v1.09A1.69 1.69 0 0 1 12.94 22zm-1.57-2h1.26v-.77a2.33 2.33 0 0 1 1.46-2.14 2.36 2.36 0 0 1 2.59.47l.54.54.88-.88-.54-.55a2.34 2.34 0 0 1-.48-2.56 2.33 2.33 0 0 1 2.14-1.45H20v-1.29h-.77a2.33 2.33 0 0 1-2.14-1.46 2.36 2.36 0 0 1 .47-2.59l.54-.54-.88-.88-.55.54a2.39 2.39 0 0 1-4-1.67V4h-1.3v.77a2.33 2.33 0 0 1-1.46 2.14 2.36 2.36 0 0 1-2.59-.47l-.54-.54-.88.88.54.55a2.39 2.39 0 0 1-1.67 4H4v1.26h.77a2.33 2.33 0 0 1 2.14 1.46 2.36 2.36 0 0 1-.47 2.59l-.54.54.88.88.55-.54a2.39 2.39 0 0 1 4 1.67z"
         data-name="&lt;Group&gt;"
         id="path4" />
      <path
         d="M12 15.5a3.5 3.5 0 1 1 3.5-3.5 3.5 3.5 0 0 1-3.5 3.5zm0-5a1.5 1.5 0 1 0 1.5 1.5 1.5 1.5 0 0 0-1.5-1.5z"
         id="path6" />
    </g>
  </g>
  <path
     style="fill:#ffffff;stroke-width:0.0380952"
     d="M 10.647619,21.926363 C 10.151416,21.788072 9.7750625,21.470269 9.5504457,20.999879 L 9.4095238,20.704762 9.3904762,19.899097 C 9.3733535,19.174851 9.3640648,19.08531 9.29856,19.013054 9.2087451,18.913983 8.9720571,18.839164 8.8474213,18.870446 8.7963109,18.883274 8.5612895,19.100304 8.3243703,19.353458 8.0877406,19.606303 7.8236682,19.860846 7.7375432,19.919109 7.2364034,20.258128 6.6286396,20.297361 6.0763375,20.026342 5.8700076,19.925095 5.6834511,19.761939 4.9608309,19.05076 4.1799874,18.282278 4.0791496,18.16855 3.9538787,17.915082 3.7234298,17.4488 3.7363518,16.900757 3.989575,16.401147 c 0.042798,-0.08444 0.2971506,-0.377131 0.5652287,-0.650422 0.268078,-0.273293 0.4984486,-0.540858 0.5119345,-0.59459 0.0265,-0.105584 -0.057128,-0.346041 -0.1598097,-0.459503 -0.053716,-0.05936 -0.1327087,-0.06816 -0.6175947,-0.06881 -0.3058002,-4.15e-4 -0.674116,-0.01783 -0.8184795,-0.0387 -0.7485416,-0.108203 -1.3349053,-0.70313 -1.4323056,-1.453226 -0.047107,-0.362778 -0.046725,-1.911205 5.626e-4,-2.278753 0.096763,-0.752103 0.6772006,-1.3402245 1.4275554,-1.4464531 0.1466666,-0.020763 0.5206508,-0.038092 0.8310758,-0.038507 0.3126673,-4.19e-4 0.5970993,-0.01825 0.637701,-0.039979 0.105184,-0.056293 0.188366,-0.2379295 0.188366,-0.411317 0,-0.142352 -0.023272,-0.1713706 -0.4826949,-0.6018918 C 4.102606,7.8143642 3.9760114,7.6430686 3.8599589,7.2620114 3.7402555,6.8689669 3.7749571,6.4852743 3.9650875,6.0996149 4.0940416,5.8380453 4.1945531,5.7228925 4.9873847,4.9284015 5.6840187,4.2303094 5.9101897,4.0266128 6.0761905,3.9477898 6.4928373,3.749951 6.9303825,3.7320927 7.3707589,3.8949522 7.6670552,4.0045281 7.749056,4.0671848 8.2889878,4.596569 c 0.4118617,0.4038157 0.4966735,0.4700977 0.6015177,0.4700977 0.1496724,0 0.4072412,-0.1264864 0.4606015,-0.2261915 C 9.373668,4.7983202 9.390669,4.4934125 9.390928,4.1263139 9.3912198,3.7131745 9.4094739,3.4180811 9.4423371,3.2952381 9.6045333,2.68895 10.060818,2.2355948 10.667998,2.0774442 c 0.326081,-0.084933 2.414506,-0.08466 2.743046,3.593e-4 0.470187,0.1216741 0.878337,0.4675317 1.099532,0.9317203 0.117476,0.2465287 0.118088,0.2511418 0.138891,1.0476191 0.01149,0.44 0.03504,0.8307302 0.05232,0.8682894 0.03736,0.081204 0.290455,0.2174248 0.403964,0.2174248 0.136928,0 0.211606,-0.063097 0.608121,-0.5138136 0.40166,-0.4565632 0.613481,-0.6307814 0.885712,-0.7284753 0.448516,-0.1609571 0.887292,-0.1381029 1.32081,0.068796 0.208665,0.099587 0.379664,0.2491198 1.116946,0.9767345 0.786691,0.7763752 0.884172,0.8866872 1.011849,1.145024 0.137221,0.2776472 0.141289,0.2980003 0.141289,0.7069017 0,0.3964967 -0.0073,0.4363459 -0.124561,0.6840506 -0.100934,0.2131345 -0.217847,0.3579719 -0.616348,0.7635612 -0.270482,0.2752937 -0.502819,0.5444968 -0.516305,0.5982289 -0.0265,0.1055837 0.05713,0.3460412 0.15981,0.4595025 0.05393,0.059598 0.133097,0.068097 0.636642,0.068349 0.316276,1.524e-4 0.686144,0.018312 0.821928,0.040342 0.744317,0.1207588 1.312996,0.7064754 1.409809,1.4520454 0.04714,0.363065 0.04672,1.950007 -6.13e-4,2.314761 -0.09383,0.723015 -0.62,1.297138 -1.324619,1.445341 -0.11103,0.02335 -0.493586,0.04246 -0.850122,0.04246 -0.371757,0 -0.679509,0.01673 -0.72154,0.03922 -0.103278,0.05527 -0.188367,0.236974 -0.188367,0.402245 0,0.129157 0.04142,0.182594 0.513404,0.662396 0.421706,0.428689 0.535266,0.568624 0.63581,0.783481 0.217487,0.46476 0.189609,1.044964 -0.07222,1.50313 -0.13869,0.242685 -1.696426,1.806198 -1.937051,1.944234 -0.532129,0.305258 -1.199108,0.274877 -1.71197,-0.07798 -0.09806,-0.06747 -0.381246,-0.31783 -0.629304,-0.556364 -0.399985,-0.384626 -0.466127,-0.433698 -0.584568,-0.433698 -0.148504,0 -0.386488,0.123597 -0.443653,0.230411 -0.02041,0.03814 -0.03731,0.357612 -0.03756,0.709942 -3.05e-4,0.420527 -0.0184,0.707997 -0.05269,0.836783 -0.159401,0.598665 -0.620037,1.054675 -1.224382,1.212087 -0.292609,0.07622 -2.413781,0.07922 -2.684383,0.0038 z m 2.027205,-2.564458 c 0.01432,-0.576709 0.02544,-0.662637 0.115652,-0.8932 0.384523,-0.982772 1.362134,-1.614153 2.38727,-1.541797 0.663504,0.04683 1.074297,0.25425 1.680819,0.848682 l 0.363327,0.356086 0.45304,-0.454224 0.45304,-0.454223 -0.378272,-0.395215 c -0.540642,-0.564859 -0.732382,-0.921556 -0.817326,-1.520496 -0.06646,-0.468617 0.05729,-1.042062 0.324254,-1.502549 0.153171,-0.264204 0.606721,-0.697333 0.883793,-0.844 0.381463,-0.201925 0.74148,-0.275255 1.351387,-0.275255 h 0.52724 v -0.662115 -0.662115 l -0.6,-0.01843 c -0.46957,-0.01443 -0.653829,-0.0359 -0.847619,-0.09878 -0.958527,-0.311023 -1.638181,-1.232908 -1.647552,-2.2347452 -0.004,-0.4273398 0.05201,-0.674859 0.24398,-1.0781848 0.124758,-0.2621192 0.219868,-0.3880422 0.555405,-0.7353443 L 18.128131,6.7769303 17.676485,6.3241051 17.22484,5.87128 16.835327,6.2431699 C 16.38541,6.672731 15.995021,6.8965688 15.52381,6.9951558 14.319838,7.2470503 13.070926,6.4530442 12.762477,5.2396153 12.725205,5.0929869 12.704762,4.8332357 12.704762,4.5062819 V 4 h -0.685714 -0.685715 v 0.5443772 c 0,0.6076226 -0.0462,0.8508296 -0.234152,1.2326132 C 10.696038,6.5958899 9.7434853,7.1381143 8.8222537,7.0730922 8.1587497,7.026261 7.7479566,6.8188423 7.141435,6.2244095 L 6.7781082,5.8683242 6.3246731,6.3229436 5.8712381,6.777563 6.2131973,7.1316389 c 0.5802762,0.6008361 0.7787871,1.0213013 0.8068823,1.7090537 0.01188,0.2908167 -6.324e-4,0.470627 -0.045063,0.647619 C 6.7757989,10.281906 6.188587,10.915967 5.4010832,11.187817 5.1455613,11.276024 5.0273954,11.292345 4.5428571,11.306349 l -0.5619047,0.01624 v 0.639475 0.639476 l 0.6,0.01702 c 0.4761379,0.01351 0.6511177,0.03378 0.847619,0.09822 0.9659878,0.316758 1.6381345,1.228808 1.647552,2.235595 0.004,0.42734 -0.052013,0.674859 -0.2439805,1.078185 -0.1247574,0.262117 -0.2198679,0.388042 -0.5553928,0.735331 l -0.4048556,0.419052 0.4348598,0.436097 c 0.2391729,0.239853 0.4498305,0.436097 0.468128,0.436097 0.018298,0 0.2045547,-0.162865 0.4139047,-0.361922 0.6078652,-0.577979 1.1887044,-0.813079 1.8969273,-0.767795 0.6090583,0.03894 1.0709557,0.253083 1.5272667,0.708059 0.488832,0.487399 0.669062,0.955554 0.708639,1.840705 L 11.34504,20 h 0.656973 0.656971 z"
     id="path92" />
  <path
     style="fill:#ffffff;stroke-width:0.0380952"
     d="M 11.238095,15.390369 C 10.095888,15.128489 9.1436182,14.296095 8.7451943,13.211285 8.5803621,12.762488 8.5389059,12.524198 8.5377763,12.019048 8.5355212,11.010661 8.8699255,10.21856 9.5992429,9.5047619 10.026089,9.0869989 10.508215,8.814134 11.161905,8.6203561 c 0.33269,-0.098622 1.304916,-0.096247 1.67619,0.00409 0.751923,0.2032165 1.3956,0.6168282 1.863078,1.1971684 0.846291,1.0506095 1.010864,2.4777605 0.424726,3.6831425 -0.478372,0.983761 -1.374828,1.685598 -2.429055,1.901711 -0.39604,0.08119 -1.0667,0.07378 -1.458749,-0.0161 z m 1.144377,-1.925683 c 0.441557,-0.114981 0.787784,-0.402077 0.985355,-0.817067 C 13.476406,12.41955 13.485714,12.368418 13.485714,12 c 0,-0.368057 -0.0094,-0.419774 -0.117583,-0.647619 -0.547181,-1.15231 -2.190365,-1.152376 -2.736443,-1.09e-4 -0.107957,0.227797 -0.117402,0.27991 -0.117402,0.647728 0,0.368418 0.0093,0.41955 0.117887,0.647619 0.317852,0.667637 1.036261,1.003001 1.750299,0.817067 z"
     id="path131" />
</svg>
